<?xml version="1.0" encoding="UTF-8"?>
<svg width="22px" height="19px" viewBox="0 0 22 19" version="1.1" xmlns="http://www.w3.org/2000/svg" xmlns:xlink="http://www.w3.org/1999/xlink">
    <!-- Generator: Sketch 64 (93537) - https://sketch.com -->
    <title>Atoms/icons/camera</title>
    <desc>Created with Sketch.</desc>
    <g id="Symbols" stroke="none" stroke-width="1" fill="none" fill-rule="evenodd">
        <g id="Organisms/Header-edit" transform="translate(-100.000000, -73.000000)" fill="#E4002B">
            <g id="HEADER">
                <g id="Change-Cover-Photo" transform="translate(82.000000, 58.000000)">
                    <g id="Atoms/icons/camera" transform="translate(17.000000, 12.000000)">
                        <path d="M8.95384615,3.60000109 C8.64017538,3.60415604 8.33148923,3.82383634 8.20961538,4.05865604 L7.32692308,5.8153868 L3.69230769,5.8153868 C2.32594154,5.8153868 1.2,6.94132004 1.2,8.3076945 L1.2,18.8307853 C1.2,20.1971514 2.32594154,21.323093 3.69230769,21.323093 L20.3076923,21.323093 C21.6740585,21.323093 22.8,20.1971514 22.8,18.8307853 L22.8,8.3076945 C22.8,6.94132004 21.6740585,5.8153868 20.3076923,5.8153868 L16.6730769,5.8153868 L15.7903846,4.05865604 C15.65292,3.78430834 15.3530123,3.59948157 15.0461538,3.60000109 L8.95384615,3.60000109 Z M9.47307692,5.26154065 L14.5269231,5.26154065 L15.4096154,7.01827142 C15.54708,7.29261911 15.8469877,7.47744588 16.1538462,7.47692527 L20.3076923,7.47692527 C20.7823108,7.47692527 21.1384615,7.83306219 21.1384615,8.3076945 L21.1384615,18.8307853 C21.1384615,19.3054037 20.7823108,19.6615545 20.3076923,19.6615545 L3.69230769,19.6615545 C3.21768923,19.6615545 2.86153846,19.3054037 2.86153846,18.8307853 L2.86153846,8.3076945 C2.86153846,7.83306219 3.21768923,7.47692527 3.69230769,7.47692527 L7.84615385,7.47692527 C8.15301231,7.47747911 8.45292,7.29261911 8.59038462,7.01827142 L9.47307692,5.26154065 Z M12,8.58461757 C9.25693846,8.58461757 7.01538462,10.826141 7.01538462,13.5692191 C7.01538462,16.312336 9.25693846,18.5538622 12,18.5538622 C14.7430892,18.5538622 16.9846154,16.3123083 16.9846154,13.5692191 C16.9846154,10.8261548 14.7430892,8.58461757 12,8.58461757 Z M12,10.246156 C13.8451385,10.246156 15.3230769,11.7241167 15.3230769,13.5692191 C15.3230769,15.4143576 13.8451385,16.8923237 12,16.8923237 C10.1549446,16.8923237 8.67692308,15.4143299 8.67692308,13.5692191 C8.67692308,11.7241305 10.1549446,10.246156 12,10.246156 Z" id="Shape"></path>
                    </g>
                </g>
            </g>
        </g>
    </g>
</svg>