<?xml version="1.0" encoding="UTF-8"?>
<svg width="18px" height="14px" viewBox="0 0 18 14" version="1.1" xmlns="http://www.w3.org/2000/svg" xmlns:xlink="http://www.w3.org/1999/xlink">
    <!-- Generator: Sketch 64 (93537) - https://sketch.com -->
    <title>Link/Link-icon Copy</title>
    <desc>Created with Sketch.</desc>
    <g id="Symbols" stroke="none" stroke-width="1" fill="none" fill-rule="evenodd">
        <g id="Molecules/RP_Employee_Card-Hover" transform="translate(-20.000000, -387.000000)">
            <g id="Atoms/Link/Link-icon" transform="translate(19.000000, 383.000000)">
                <g id="Atoms/icons/chat" transform="translate(0.000000, 1.000000)" fill="#E4002B" fill-rule="evenodd">
                    <path d="M3.25,4.5 C2.836,4.5 2.5,4.836 2.5,5.25 L2.5,15.4395 L4.21975,13.71975 C4.36,13.57875 4.55125,13.5 4.75,13.5 L16.75,13.5 C17.164,13.5 17.5,13.164 17.5,12.75 L17.5,5.25 C17.5,4.836 17.164,4.5 16.75,4.5 L3.25,4.5 Z M1,5.25 C1,4.00725 2.00725,3 3.25,3 L16.75,3 C17.99275,3 19,4.00725 19,5.25 L19,12.75 C19,13.99275 17.99275,15 16.75,15 L5.0605,15 L3.5605,16.5 C2.6155,17.445 1,16.776 1,15.4395 L1,5.25 Z M6.25,7.5 C6.25,7.086 6.586,6.75 7,6.75 L9.25,6.75 C9.664,6.75 10,7.086 10,7.5 C10,7.914 9.664,8.25 9.25,8.25 L7,8.25 C6.586,8.25 6.25,7.914 6.25,7.5 Z M6.25,10.5 C6.25,10.086 6.586,9.75 7,9.75 L13,9.75 C13.414,9.75 13.75,10.086 13.75,10.5 C13.75,10.914 13.414,11.25 13,11.25 L7,11.25 C6.586,11.25 6.25,10.914 6.25,10.5 L6.25,10.5 Z" id="Fill-949"></path>
                </g>
                <text id="Link" font-family="Helvetica" font-size="16" font-weight="normal"></text>
            </g>
        </g>
    </g>
</svg>