<?xml version="1.0" encoding="UTF-8"?>
<svg width="16px" height="16px" viewBox="0 0 16 16" version="1.1" xmlns="http://www.w3.org/2000/svg" xmlns:xlink="http://www.w3.org/1999/xlink">
    <!-- Generator: Sketch 64 (93537) - https://sketch.com -->
    <title>close</title>
    <desc>Created with Sketch.</desc>
    <defs>
        <path d="M10,8.58578644 L3.70710678,2.29289322 C3.31658249,1.90236893 2.68341751,1.90236893 2.29289322,2.29289322 C1.90236893,2.68341751 1.90236893,3.31658249 2.29289322,3.70710678 L8.58578644,10 L2.29289322,16.2928932 C1.90236893,16.6834175 1.90236893,17.3165825 2.29289322,17.7071068 C2.68341751,18.0976311 3.31658249,18.0976311 3.70710678,17.7071068 L10,11.4142136 L16.2928932,17.7071068 C16.6834175,18.0976311 17.3165825,18.0976311 17.7071068,17.7071068 C18.0976311,17.3165825 18.0976311,16.6834175 17.7071068,16.2928932 L11.4142136,10 L17.7071068,3.70710678 C18.0976311,3.31658249 18.0976311,2.68341751 17.7071068,2.29289322 C17.3165825,1.90236893 16.6834175,1.90236893 16.2928932,2.29289322 L10,8.58578644 Z" id="path-1"></path>
    </defs>
    <g id="Symbols" stroke="none" stroke-width="1" fill="none" fill-rule="evenodd">
        <g id="Atoms/icons/close" transform="translate(-2.000000, -2.000000)">
            <mask id="mask-2" fill="white">
                <use xlink:href="#path-1"></use>
            </mask>
            <use id="close" fill="#E4002B" xlink:href="#path-1"></use>
        </g>
    </g>
</svg>