<?xml version="1.0" encoding="UTF-8"?>
<svg width="18px" height="18px" viewBox="0 0 18 18" version="1.1" xmlns="http://www.w3.org/2000/svg" xmlns:xlink="http://www.w3.org/1999/xlink">
    <!-- Generator: Sketch 64 (93537) - https://sketch.com -->
    <title>Pencil</title>
    <desc>Created with Sketch.</desc>
    <g id="Symbols" stroke="none" stroke-width="1" fill="none" fill-rule="evenodd">
        <g id="Atoms/icons/pencil" transform="translate(-1.000000, -1.000000)" fill="#000000" fill-rule="nonzero">
            <g id="Pencil" transform="translate(1.000000, 1.000000)">
                <path d="M17.697095,3.9168752 L13.9238385,0.19584376 C13.8012621,0.0722580889 13.634406,0.00274290653 13.4603416,0.00274290653 C13.2862773,0.00274290653 13.1194211,0.0722580889 12.9968447,0.19584376 L10.3072571,2.8854314 L2.01653792,11.1761506 C1.95217022,11.2431319 1.90316174,11.3233276 1.87291916,11.4111631 L0.0581003155,16.9731259 C-0.0130655339,17.2093861 0.0522516302,17.4656304 0.227831574,17.6389947 C0.350473222,17.7572093 0.514463532,17.8228054 0.684800348,17.8217822 C0.749466614,17.8344545 0.815977842,17.8344545 0.880644108,17.8217822 L6.45566315,16.0330758 C6.54825437,15.9984803 6.63270648,15.9451422 6.70373191,15.8764008 L17.6840387,4.89609401 C17.8225083,4.77185894 17.9026922,4.59536217 17.9051724,4.40934601 C17.9076527,4.22332985 17.8322029,4.04475797 17.697095,3.9168752 Z M6.24676314,14.479382 L3.40050049,11.6331194 L10.7772821,4.26939397 L13.6235448,7.11565662 L6.24676314,14.479382 Z M2.77380046,12.8473507 L5.03253182,15.106082 L1.71624415,16.1636383 L2.77380046,12.8473507 Z M14.5244261,6.18866282 L11.6912197,3.34240017 L13.4668698,1.57980633 L16.3131324,4.42606898 L14.5244261,6.18866282 Z" id="Shape"></path>
            </g>
        </g>
    </g>
</svg>