<?xml version="1.0" encoding="UTF-8"?>
<svg width="20px" height="20px" viewBox="0 0 20 20" version="1.1" xmlns="http://www.w3.org/2000/svg" xmlns:xlink="http://www.w3.org/1999/xlink">
    <!-- Generator: Sketch 64 (93537) - https://sketch.com -->
    <title>0: Icons / Phone</title>
    <desc>Created with Sketch.</desc>
    <g id="Symbols" stroke="none" stroke-width="1" fill="none" fill-rule="evenodd">
        <g id="Molecules/RP_Employee_Card-Hover" transform="translate(-244.000000, -384.000000)" fill="#E4002B">
            <g id="0:-Icons-/-Phone" transform="translate(242.000000, 382.000000)">
                <path d="M20.4783021,6.9979336 C19.3846271,9.07591596 16.9560255,12.2745935 14.9230768,14.3840994 C12.5793957,16.9188519 7.05440731,20.3851581 7.05440731,20.3851581 C6.62787409,20.6090398 5.44413181,20.6257666 5.11860268,20.3008808 L3.94065045,19.1261452 C3.69746861,18.7195555 3.58810112,18.2486319 3.94065045,17.9514097 L6.29719825,16.188663 C6.69606793,15.9191043 7.14962136,15.8644206 7.47515049,16.188663 L8.92716479,17.636174 C9.26877737,17.3962088 14.7229986,13.8218218 17.7569815,8.90092797 L16.2702269,7.41803344 C15.9446978,7.09379099 16.0000249,6.6408809 16.2702269,6.24265456 L18.037477,3.89318347 C18.3630061,3.45893019 18.8905434,3.56829768 19.2154292,3.89318347 L20.3940248,5.06791901 C20.8559416,5.50152896 20.7221272,6.51221326 20.4783021,6.9979336 L20.4783021,6.9979336 Z M21.4034224,4.22900601 L19.5518951,2.38262539 C19.0410845,1.8724582 18.2118216,1.8724582 17.7003677,2.38262539 L14.9230768,6.07538663 C14.4991169,6.70006801 14.4122662,7.41160005 14.9230768,7.92176724 L16.0566387,9.05211245 C15.216439,10.1779543 14.2076847,11.4054436 13.0721928,12.5377188 C11.7880897,13.8179618 10.359879,14.9817606 9.07577592,15.9377611 L7.98017097,14.8460162 C7.46936044,14.335849 6.75589839,14.4220564 6.12864365,14.8460162 L2.425589,17.6155872 C1.80476764,18.0434071 1.91413514,18.9518006 2.425589,19.4619678 L4.27711632,21.307705 C5.30002405,22.3280394 6.6298041,22.0012236 7.98017097,21.307705 C7.98017097,21.307705 12.0672985,19.0199944 15.566415,15.5305281 C18.8577332,12.2482166 21.4034224,7.92176724 21.4034224,7.92176724 C21.9341764,6.46589291 22.4263301,5.24869705 21.4034224,4.22900601 L21.4034224,4.22900601 Z" id="Color:" transform="translate(12.000000, 11.978070) scale(-1, 1) translate(-12.000000, -11.978070) "></path>
            </g>
        </g>
    </g>
</svg>