<?xml version="1.0" encoding="UTF-8"?>
<svg width="18px" height="18px" viewBox="0 0 18 18" version="1.1" xmlns="http://www.w3.org/2000/svg" xmlns:xlink="http://www.w3.org/1999/xlink">
    <!-- Generator: Sketch 64 (93537) - https://sketch.com -->
    <title>Link/Link-icon Copy 4</title>
    <desc>Created with Sketch.</desc>
    <g id="Symbols" stroke="none" stroke-width="1" fill="none" fill-rule="evenodd">
        <g id="Molecules/RP_Employee_Card-Hover" transform="translate(-134.000000, -385.000000)">
            <g id="Atoms/Link/Link-icon" transform="translate(133.000000, 383.000000)">
                <g id="Atoms/icons/share" transform="translate(0.000000, 1.000000)" fill="#E4002B" fill-rule="evenodd">
                    <path d="M15.7272727,2.63636364 C14.824,2.63636364 14.0909091,3.36945455 14.0909091,4.27272727 C14.0909091,4.537 14.1530909,4.78490909 14.2627273,5.00418182 C14.5327273,5.54254545 15.0874545,5.90909091 15.7272727,5.90909091 C16.6305455,5.90909091 17.3636364,5.176 17.3636364,4.27272727 C17.3636364,3.36945455 16.6305455,2.63636364 15.7272727,2.63636364 Z M12.4545455,4.27272727 C12.4545455,2.46536364 13.9199091,1 15.7272727,1 C17.5346364,1 19,2.46536364 19,4.27272727 C19,6.08009091 17.5346364,7.54545455 15.7272727,7.54545455 C14.7413636,7.54545455 13.8585455,7.10936364 13.2588182,6.42127273 L7.47345455,9.31436364 C7.52090909,9.53609091 7.54545455,9.76518182 7.54545455,10 C7.54545455,10.2348182 7.52090909,10.4639091 7.47345455,10.6856364 L13.2588182,13.5787273 C13.8585455,12.8906364 14.7413636,12.4545455 15.7272727,12.4545455 C17.5346364,12.4545455 19,13.9199091 19,15.7272727 C19,17.5346364 17.5346364,19 15.7272727,19 C13.9199091,19 12.4545455,17.5346364 12.4545455,15.7272727 C12.4545455,15.4924545 12.4790909,15.2633636 12.5265455,15.0416364 L6.74118182,12.1485455 C6.14145455,12.8366364 5.25863636,13.2727273 4.27272727,13.2727273 C2.46536364,13.2727273 1,11.8073636 1,10 C1,8.19263636 2.46536364,6.72727273 4.27272727,6.72727273 C5.25863636,6.72727273 6.14145455,7.16336364 6.74118182,7.85145455 L12.5265455,4.95836364 C12.4790909,4.73663636 12.4545455,4.50754545 12.4545455,4.27272727 Z M4.27272727,8.36363636 C3.36945455,8.36363636 2.63636364,9.09672727 2.63636364,10 C2.63636364,10.9032727 3.36945455,11.6363636 4.27272727,11.6363636 C4.91172727,11.6363636 5.46727273,11.2698182 5.73727273,10.7314545 C5.84690909,10.5121818 5.90909091,10.2642727 5.90909091,10 C5.90909091,9.73572727 5.84690909,9.48781818 5.73727273,9.26854545 C5.46727273,8.73018182 4.91172727,8.36363636 4.27272727,8.36363636 Z M15.7272727,14.0909091 C15.0874545,14.0909091 14.5327273,14.4574545 14.2627273,14.9958182 C14.1530909,15.2150909 14.0909091,15.463 14.0909091,15.7272727 C14.0909091,16.6305455 14.824,17.3636364 15.7272727,17.3636364 C16.6305455,17.3636364 17.3636364,16.6305455 17.3636364,15.7272727 C17.3636364,14.824 16.6305455,14.0909091 15.7272727,14.0909091 L15.7272727,14.0909091 Z" id="Fill-936"></path>
                </g>
                <text id="Link" font-family="Helvetica" font-size="16" font-weight="normal"></text>
            </g>
        </g>
    </g>
</svg>