<?xml version="1.0" encoding="UTF-8"?>
<svg width="15px" height="18px" viewBox="0 0 15 18" version="1.1" xmlns="http://www.w3.org/2000/svg" xmlns:xlink="http://www.w3.org/1999/xlink">
    <!-- Generator: Sketch 64 (93537) - https://sketch.com -->
    <title>noun_Delete_1144254</title>
    <desc>Created with Sketch.</desc>
    <g id="Symbols" stroke="none" stroke-width="1" fill="none" fill-rule="evenodd">
        <g id="Atoms/icons/trash" transform="translate(-3.000000, -1.000000)" fill="#000000" fill-rule="nonzero">
            <g id="noun_Delete_1144254" transform="translate(3.000000, 1.000000)">
                <path d="M12.2147262,3.31906392 L11.738466,16.1780894 C11.7302919,16.3987886 11.5359196,16.5857143 11.3142792,16.5857143 L3.08572084,16.5857143 C2.86429955,16.5857143 2.66968242,16.398096 2.66153403,16.1780894 L2.18527383,3.31906392 C2.17213318,2.964267 1.87386087,2.68729984 1.51906392,2.70044046 C1.164267,2.7135811 0.887299843,3.01185342 0.90044046,3.36665037 L1.37670066,16.2256758 C1.41044071,17.1366569 2.17262188,17.8714286 3.08572084,17.8714286 L11.3142792,17.8714286 C12.2269053,17.8714286 12.989508,17.1380423 13.0232993,16.2256758 L13.4995595,3.36665037 C13.5127002,3.01185342 13.235733,2.7135811 12.8809361,2.70044046 C12.5261391,2.68729984 12.2278668,2.964267 12.2147262,3.31906392 Z" id="Path"></path>
                <path d="M6.68571429,5.91428571 L6.68571429,14.6571429 C6.68571429,14.941175 6.91596784,15.1714286 7.2,15.1714286 C7.48403216,15.1714286 7.71428571,14.941175 7.71428571,14.6571429 L7.71428571,5.91428571 C7.71428571,5.63025356 7.48403216,5.4 7.2,5.4 C6.91596784,5.4 6.68571429,5.63025356 6.68571429,5.91428571 Z" id="Path"></path>
                <path d="M3.85736516,5.92940523 L4.11450801,14.6722624 C4.12285829,14.9561718 4.35978154,15.1795565 4.64369094,15.1712063 C4.92760034,15.162856 5.15098512,14.9259327 5.14263484,14.6420233 L4.88549199,5.8991662 C4.87714171,5.61525681 4.64021846,5.39187202 4.35630906,5.4002223 C4.07239966,5.40857258 3.84901488,5.64549583 3.85736516,5.92940523 Z" id="Path"></path>
                <path d="M9.51450801,5.8991662 L9.25736516,14.6420233 C9.24901488,14.9259327 9.47239966,15.162856 9.75630906,15.1712063 C10.0402185,15.1795565 10.2771417,14.9561718 10.285492,14.6722624 L10.5426348,5.92940523 C10.5509851,5.64549583 10.3276003,5.40857258 10.0436909,5.4002223 C9.75978154,5.39187202 9.52285829,5.61525681 9.51450801,5.8991662 Z" id="Path"></path>
                <path d="M0.771428571,3.6 L13.6285714,3.6 C13.9836116,3.6 14.2714286,3.31218306 14.2714286,2.95714286 C14.2714286,2.60210265 13.9836116,2.31428571 13.6285714,2.31428571 L0.771428571,2.31428571 C0.416388369,2.31428571 0.128571429,2.60210265 0.128571429,2.95714286 C0.128571429,3.31218306 0.416388369,3.6 0.771428571,3.6 Z" id="Path"></path>
                <path d="M5.24669397,2.74803501 L5.51438108,1.81113015 C5.57171447,1.61046327 5.83183741,1.41428571 6.04067058,1.41428571 L8.35932942,1.41428571 C8.56829584,1.41428571 8.82823749,1.61029515 8.88561892,1.81113015 L9.15330603,2.74803501 L10.3895511,2.39482214 L10.121864,1.45791728 C9.90675699,0.705042771 9.1422585,0.128571429 8.35932942,0.128571429 L6.04067058,0.128571429 C5.25783438,0.128571429 4.49318386,0.705249771 4.27813599,1.45791728 L4.01044888,2.39482214 L5.24669397,2.74803501 Z" id="Path"></path>
            </g>
        </g>
    </g>
</svg>