<?xml version="1.0" encoding="UTF-8"?>
<svg width="18px" height="13px" viewBox="0 0 18 13" version="1.1" xmlns="http://www.w3.org/2000/svg" xmlns:xlink="http://www.w3.org/1999/xlink">
    <!-- Generator: Sketch 64 (93537) - https://sketch.com -->
    <title>Link/Link-icon Copy 2</title>
    <desc>Created with Sketch.</desc>
    <g id="Symbols" stroke="none" stroke-width="1" fill="none" fill-rule="evenodd">
        <g id="Molecules/RP_Employee_Card-Hover" transform="translate(-191.000000, -388.000000)">
            <g id="Atoms/Link/Link-icon" transform="translate(190.000000, 383.000000)">
                <g id="Atoms/icons/video" transform="translate(0.000000, 1.000000)" fill="#E4002B" fill-rule="nonzero">
                    <path d="M11.8461538,4 C13.2148635,4 14.3305671,5.08324793 14.3827099,6.43918913 L16.7846766,5.47895269 C17.6130192,5.14761565 18.5531253,5.55051827 18.8844623,6.37886087 C18.9607862,6.56967055 19,6.77329135 19,6.97879966 L19,13.4827388 C19,14.3748911 18.2767677,15.0981234 17.3846154,15.0981234 C17.1791071,15.0981234 16.9754863,15.0589096 16.7846766,14.9825858 L14.381,14.021 L14.3792159,14.0899815 C14.29327,15.4141327 13.1920293,16.4615385 11.8461538,16.4615385 L3.53846154,16.4615385 C2.13650794,16.4615385 1,15.3250305 1,13.9230769 L1,6.53846154 C1,5.13650794 2.13650794,4 3.53846154,4 L11.8461538,4 Z M11.8461538,5.38461538 L3.53846154,5.38461538 C2.9012099,5.38461538 2.38461538,5.9012099 2.38461538,6.53846154 L2.38461538,13.9230769 C2.38461538,14.5603286 2.9012099,15.0769231 3.53846154,15.0769231 L11.8461538,15.0769231 C12.4834055,15.0769231 13,14.5603286 13,13.9230769 L13,6.53846154 C13,5.9012099 12.4834055,5.38461538 11.8461538,5.38461538 Z M17.2989098,6.7645358 L14.3846154,7.93025359 L14.3846154,12.5312849 L17.2989098,13.6970027 C17.3261684,13.7079061 17.3552571,13.713508 17.3846154,13.713508 C17.5120657,13.713508 17.6153846,13.6101891 17.6153846,13.4827388 L17.6153846,6.97879966 C17.6153846,6.94944133 17.6097826,6.92035264 17.5988792,6.89309412 C17.5515454,6.77475946 17.4172445,6.71720194 17.2989098,6.7645358 Z" id="Shape"></path>
                </g>
                <text id="Link" font-family="Helvetica" font-size="16" font-weight="normal"></text>
            </g>
        </g>
    </g>
</svg>